<?xml version="1.0" encoding="UTF-8" standalone="no"?><!DOCTYPE svg PUBLIC "-//W3C//DTD SVG 1.1//EN" "http://www.w3.org/Graphics/SVG/1.1/DTD/svg11.dtd"><svg width="100%" height="100%" viewBox="0 0 480 158" version="1.1" xmlns="http://www.w3.org/2000/svg" xmlns:xlink="http://www.w3.org/1999/xlink" xml:space="preserve" xmlns:serif="http://www.serif.com/" style="fill-rule:evenodd;clip-rule:evenodd;stroke-linejoin:round;stroke-miterlimit:1.41421;"><g><g><g><path d="M19.857,134.011l-1.685,0.632l0,-12.373c15.385,-9.566 28.652,-5.209 28.652,-5.209c-17.958,5.01 -23.443,15.628 -23.443,15.628l-0.488,0.183l-1.005,-6.764l0,7.141l-0.965,0.362l-1.066,-7.179l0,7.579Z" style="fill:#dda126;"/><path d="M0,105.826l5.237,1.829c0,0 4.975,7.959 4.582,11.128c0,0 -8.094,-3.425 -9.819,-12.957Z" style="fill:#dda126;"/><path d="M32.048,60.901l24.703,0c-4.667,7.193 -4.718,11.228 -4.718,11.228c0.867,-2.898 4.217,-7.25 7.712,-11.228l42.65,0c5.257,4.702 7.593,9.274 7.593,9.274c-30.683,-7.076 -43.629,3.256 -43.629,3.256c27.561,-7.822 35.93,-0.464 35.93,-0.464c9.363,8.871 6.257,27.992 6.257,27.992c-10.653,-13.499 -25.256,-15.806 -25.256,-15.806c27.902,13.959 29.604,36.1 29.553,36.079c-3.879,6.104 -10.967,3.662 -14.468,16.067c6.616,-23.446 -13.496,-40.128 -13.496,-40.128c16.043,17.824 10.473,36.207 6.733,44.215c-12.68,7.075 -13.426,-1.196 -30.851,8.243c-1.613,0.873 -2.881,-0.045 -2.881,-0.045c30.259,-12.264 20.778,-44.896 20.778,-44.896c1.585,46.546 -36.417,35.814 -36.417,35.814c26.545,-0.078 16.955,-20.837 16.955,-20.837c9.908,-9.907 10.863,-18.738 9.457,-24.976c2.152,0.844 4.402,1.292 5.62,0.227c5.916,-5.173 4.901,-12.348 4.901,-12.348c-4.886,0.006 -9.763,3.483 -12.807,6.176c-1.256,-2.25 -2.46,-3.508 -2.46,-3.508c-0.241,8.744 -18.386,12.289 -18.386,12.289c25.046,0.428 8.466,14.977 8.466,14.977c-27.879,-3.441 -39.071,5.861 -39.071,5.861c-3.528,-0.429 -5.761,-4.561 -7.163,-11.07l4.558,-6.512c-2.694,-0.89 -7.998,0.641 -11.436,1.205c7.32,-6.279 16.145,-11.249 25.762,-15.531l0.651,-5.861c3.33,-3.066 13.675,-5.209 13.675,-5.209c-7.739,-6.531 -8.841,-8.671 -9.117,-14.326c0.067,-0.066 0.134,-0.131 0.202,-0.196l0,0.038Zm6.94,28.159l0.022,0c0,0 -0.057,-3.934 7.726,-5.861c0,0 -6.504,-2.627 -14.89,5.861l4.169,0c-0.009,0.089 -0.013,0.179 -0.013,0.27c0,1.949 1.907,3.532 4.255,3.532c-0.704,-0.824 -1.276,-2.123 -1.276,-3.532c0,-0.091 0.002,-0.181 0.007,-0.27Z" style="fill:#dda126;"/></g><g><path d="M65.425,5.56l-2.516,0l2.516,2.516l0,1.181l-1.181,0l-2.517,-2.516l0,8.294l2.517,-2.516l1.181,0l0,1.181l-2.516,2.516l4.199,0l0,-10.656l-1.683,0Z" style="fill:#dda126;fill-rule:nonzero;"/><path d="M68.687,16.216l2.516,0l-2.516,-2.516l0,-1.181l1.181,0l2.515,2.516l0,-2.516l0,-3.262l0,-2.516l-2.515,2.516l-1.181,0l0,-1.181l2.516,-2.516l-2.516,0l-1.579,0l0,10.656l1.579,0Z" style="fill:#dda126;fill-rule:nonzero;"/><rect x="65.332" y="15.463" width="1.776" height="7.919" style="fill:#dda126;fill-rule:nonzero;"/><rect x="67.108" y="15.463" width="1.776" height="7.919" style="fill:#dda126;fill-rule:nonzero;"/><path d="M69.529,45.961l-4.949,0l0,-17.075c0,-3.955 -3.216,-7.172 -7.171,-7.172l-3.258,0c-3.954,0 -7.172,3.217 -7.172,7.172c0,0.51 0.054,1.016 0.161,1.511c2.035,1.446 6.222,5.505 6.222,14.409l-4.948,0c0,-7.999 -4.09,-10.388 -4.465,-10.59l-1.001,-0.427l-0.275,-1.012c-0.426,-1.255 -0.642,-2.565 -0.642,-3.891c0,-6.683 5.437,-12.12 12.12,-12.12l3.258,0c6.684,0 12.12,5.437 12.12,12.12l0,17.075Z" style="fill:#dda126;fill-rule:nonzero;"/><path d="M40.425,44.806l-4.948,0c0,-8.653 -5.968,-10.424 -6.028,-10.44l-1.257,-0.352l-0.419,-1.237c-0.426,-1.255 -0.642,-2.565 -0.642,-3.891c0,-6.683 5.438,-12.12 12.121,-12.12l3.258,0c2.666,0 5.196,0.849 7.316,2.456l-2.989,3.944c-1.253,-0.95 -2.75,-1.452 -4.327,-1.452l-3.258,0c-3.955,0 -7.172,3.217 -7.172,7.172c0,0.427 0.038,0.85 0.113,1.268c0.949,0.452 2.254,1.224 3.553,2.468c2.134,2.046 4.679,5.82 4.679,12.184Z" style="fill:#dda126;fill-rule:nonzero;"/><path d="M69.66,45.961l-4.949,0l0,-17.075c0,-6.683 5.438,-12.12 12.121,-12.12l3.257,0c6.684,0 12.121,5.437 12.121,12.12c0,1.325 -0.217,2.635 -0.642,3.891l-0.355,1.048l-0.922,0.391c-0.376,0.203 -4.464,2.593 -4.464,10.59l-4.949,0c0,-8.904 4.188,-12.963 6.223,-14.409c0.106,-0.496 0.161,-1.001 0.161,-1.511c0,-3.955 -3.218,-7.172 -7.173,-7.172l-3.257,0c-3.956,0 -7.172,3.217 -7.172,7.172l0,17.075Z" style="fill:#dda126;fill-rule:nonzero;"/><path d="M98.764,44.806l-4.948,0c0,-6.364 2.545,-10.138 4.68,-12.184c1.297,-1.244 2.603,-2.016 3.552,-2.468c0.076,-0.418 0.113,-0.841 0.113,-1.268c0,-3.955 -3.217,-7.172 -7.173,-7.172l-3.257,0c-1.577,0 -3.074,0.502 -4.328,1.452l-2.99,-3.943c2.122,-1.608 4.651,-2.457 7.318,-2.457l3.257,0c6.684,0 12.121,5.437 12.121,12.12c0,1.326 -0.216,2.636 -0.642,3.892l-0.431,1.269l-1.232,0.315c-0.153,0.05 -1.623,0.557 -3.046,1.99c-1.987,2.002 -2.994,4.846 -2.994,8.454Z" style="fill:#dda126;fill-rule:nonzero;"/><rect x="32.175" y="43.651" width="69.762" height="3.637" style="fill:#dda126;fill-rule:nonzero;"/><rect x="32.175" y="54.71" width="69.762" height="3.637" style="fill:#dda126;fill-rule:nonzero;"/><path d="M98.341,54.71l-62.573,0l0,-7.422l62.573,0l0,7.422Zm-25.001,-5.478c1.265,0 2.291,1.027 2.291,2.291c0,1.265 -1.026,2.291 -2.291,2.291c-1.264,0 -2.291,-1.026 -2.291,-2.291c0,-1.264 1.027,-2.291 2.291,-2.291Zm14.401,0c1.265,0 2.291,1.027 2.291,2.291c0,1.265 -1.026,2.291 -2.291,2.291c-1.264,0 -2.291,-1.026 -2.291,-2.291c0,-1.264 1.027,-2.291 2.291,-2.291Zm-43.202,0c1.264,0 2.291,1.027 2.291,2.291c0,1.265 -1.027,2.291 -2.291,2.291c-1.265,0 -2.292,-1.026 -2.292,-2.291c0,-1.264 1.027,-2.291 2.292,-2.291Zm14.4,0c1.265,0 2.291,1.027 2.291,2.291c0,1.265 -1.026,2.291 -2.291,2.291c-1.264,0 -2.291,-1.026 -2.291,-2.291c0,-1.264 1.027,-2.291 2.291,-2.291Z" style="fill:#dda126;"/></g></g><g><text x="132.446px" y="125.37px" style="font-family:'Optima-Regular', 'Optima';font-size:168.823px;fill:#f00;">J</text><text x="172.041px" y="100.488px" style="font-family:'Optima-Bold', 'Optima';font-weight:700;font-size:62.721px;fill:#f00;">ERUSALEM</text><text x="174.323px" y="35.802px" style="font-family:'Optima-Bold', 'Optima';font-weight:700;font-size:37.358px;fill:#dda126;">N<tspan x="210.859px 237.01px " y="35.802px 35.802px ">EW</tspan></text><text x="174.323px" y="145.519px" style="font-family:'Optima-Bold', 'Optima';font-weight:700;font-size:37.358px;fill:#dda126;">C<tspan x="210.449px 246.574px 278.552px 318.824px 348.71px 388.982px 423.015px 459.14px " y="145.519px 145.519px 145.519px 145.519px 145.519px 145.519px 145.519px 145.519px ">ATHEDRAL</tspan></text></g></g></svg>