<?xml version="1.0" encoding="UTF-8" standalone="no"?>
<!DOCTYPE svg PUBLIC "-//W3C//DTD SVG 1.1//EN" "http://www.w3.org/Graphics/SVG/1.1/DTD/svg11.dtd">
<svg width="100%" height="100%" viewBox="0 0 1496 656" version="1.1" xmlns="http://www.w3.org/2000/svg" xmlns:xlink="http://www.w3.org/1999/xlink" xml:space="preserve" xmlns:serif="http://www.serif.com/" style="fill-rule:evenodd;clip-rule:evenodd;stroke-linejoin:round;stroke-miterlimit:1.41421;">
    <g transform="matrix(3.21244,0,0,3.21244,-1754.59,-1498.43)">
        <g>
            <g>
                <g transform="matrix(2.70481,0,0,2.70481,-624.067,-1516.62)">
                    <text x="436.668px" y="793.281px" style="font-family:'Optima-Regular', 'Optima';font-size:80.956px;fill:rgb(255,0,0);">J</text>
                </g>
                <g transform="matrix(1.62703,0,0,1.62703,-986.132,-159.346)">
                    <text x="980.023px" y="464.73px" style="font-family:'Optima-Bold', 'Optima';font-weight:700;font-size:50px;fill:rgb(255,0,0);">ERUSALEM</text>
                </g>
                <g transform="matrix(0.969094,0,0,0.969094,-338.381,62.516)">
                    <text x="980.023px" y="464.73px" style="font-family:'Optima-Bold', 'Optima';font-weight:700;font-size:50px;fill:rgb(221,161,38);">N<tspan x="1028.92px 1063.92px " y="464.73px 464.73px ">EW</tspan></text>
                </g>
                <g transform="matrix(0.969094,0,0,0.969094,-338.381,204.823)">
                    <text x="980.023px" y="464.73px" style="font-family:'Optima-Bold', 'Optima';font-weight:700;font-size:50px;fill:rgb(221,161,38);">C<tspan x="1028.37px 1076.72px 1119.52px 1173.42px 1213.42px 1267.32px 1312.87px 1361.22px " y="464.73px 464.73px 464.73px 464.73px 464.73px 464.73px 464.73px 464.73px ">ATHEDRAL</tspan></text>
                </g>
            </g>
        </g>
    </g>
</svg>
